<?xml version="1.0" encoding="UTF-8" standalone="no"?>
<svg
   xmlns:dc="http://purl.org/dc/elements/1.1/"
   xmlns:cc="http://creativecommons.org/ns#"
   xmlns:rdf="http://www.w3.org/1999/02/22-rdf-syntax-ns#"
   xmlns:svg="http://www.w3.org/2000/svg"
   xmlns="http://www.w3.org/2000/svg"
   xmlns:sodipodi="http://sodipodi.sourceforge.net/DTD/sodipodi-0.dtd"
   xmlns:inkscape="http://www.inkscape.org/namespaces/inkscape"
   inkscape:version="1.0 (4035a4fb49, 2020-05-01)"
   sodipodi:docname="logo.svg"
   width="144.365632"
   height="58.248032"
   viewBox="0 0 19.098368 7.7057293"
   version="1.1"
   id="svg8">
  <sodipodi:namedview
     inkscape:current-layer="svg8"
     inkscape:window-maximized="1"
     inkscape:window-y="-8"
     inkscape:window-x="1912"
     inkscape:cy="20.038916"
     inkscape:cx="33.622075"
     inkscape:zoom="13.792844"
     showgrid="false"
     id="namedview1064"
     inkscape:window-height="1027"
     inkscape:window-width="1920"
     inkscape:pageshadow="2"
     inkscape:pageopacity="1"
     guidetolerance="10"
     gridtolerance="10"
     objecttolerance="10"
     borderopacity="1"
     bordercolor="#666666"
     pagecolor="#ffffff" />
  <defs
     id="defs2" />
  <metadata
     id="metadata5">
    <rdf:RDF>
      <cc:Work
         rdf:about="">
        <dc:format>image/svg+xml</dc:format>
        <dc:type
           rdf:resource="http://purl.org/dc/dcmitype/StillImage" />
        <dc:title></dc:title>
      </cc:Work>
    </rdf:RDF>
  </metadata>
  <g
     id="layer1"
     transform="translate(0.54479167,0.559375)">
    <path
       id="path1041"
       style="fill:#e8b647;fill-opacity:1;stroke:none;stroke-width:0;stroke-miterlimit:4;stroke-dasharray:none"
       d="M 12,0.94921875 A 12,12 0 0 0 0,12.949219 a 12,12 0 0 0 12,12 12,12 0 0 0 0.0039,0 v 0.002 c 0.0321,0 0.06364,-0.0037 0.0957,-0.0039 a 12,12 0 0 0 0.640625,-0.02148 c 0.03453,-0.0021 0.06904,-0.0034 0.103516,-0.0059 a 12,12 0 0 0 0.662109,-0.06641 c 0.06004,-0.0076 0.11986,-0.01496 0.179688,-0.02344 a 12,12 0 0 0 0.560547,-0.09375 12,12 0 0 0 0.07031,-0.01367 c 0.05157,-0.01015 0.102921,-0.02043 0.154297,-0.03125 a 12,12 0 0 0 0.162109,-0.03516 c -2.53e-4,-4.33e-4 -0.0017,-0.0035 -0.002,-0.0039 3.230592,-0.726852 6.062411,-2.766603 7.757813,-5.703125 l -0.863281,-0.501953 c -1.609924,2.788469 -4.340226,4.675625 -7.433594,5.27539 C 12.810538,21.515888 9.2074968,15.229904 8.7011719,13.367188 8.0901409,11.119264 6.7226562,9.8300781 6.7226562,9.8300781 c 0,0 -1.4855606,0.154219 -3.84375,-0.3378906 C 4.4046452,8.0625786 6.7460934,7.8750004 6.7460938,7.875 c 0,0 1.1377726,-2.9571907 4.6757812,-2.8105469 3.538009,0.1466419 5.848485,4.2249705 7.863281,6.0546879 1.952541,1.773178 4.456703,3.270728 4.615235,3.365234 A 12,12 0 0 0 24,12.949219 12,12 0 0 0 12,0.94921875 Z M 3.5644531,17.443359 a 0.50078733,0.50078733 0 0 1 0.015625,0 h 5.0351563 a 0.50078733,0.50078733 0 0 1 0.5019531,0.501953 0.50078733,0.50078733 0 0 1 -0.5019531,0.494141 H 3.5800781 A 0.50078733,0.50078733 0 0 1 3.078125,17.945312 0.50078733,0.50078733 0 0 1 3.5644531,17.443359 Z m 0.9902344,1.697266 a 0.50078734,0.50078734 0 0 1 0.015625,0 h 4.921875 a 0.50078734,0.50078734 0 0 1 0.5019531,0.501953 0.50078734,0.50078734 0 0 1 -0.5019531,0.501953 H 4.5703125 A 0.50078734,0.50078734 0 0 1 4.0683594,19.642578 0.50078734,0.50078734 0 0 1 4.5546875,19.140625 Z m 1.9707031,1.705078 a 0.50078735,0.50078735 0 0 1 0.015625,0 h 3.8886724 a 0.50078735,0.50078735 0 0 1 0.496093,0.501953 0.50078735,0.50078735 0 0 1 -0.496093,0.496094 H 6.5410156 A 0.50078735,0.50078735 0 0 1 6.0390625,21.347656 0.50078735,0.50078735 0 0 1 6.5253906,20.845703 Z"
       transform="scale(0.26458333)" />
    <path
       d="m 9.2714844,2.0957031 c -0.00391,0.00195 -0.022135,0.014974 -0.027344,0.019531 -0.014696,0.013824 -0.034838,0.033438 -0.058594,0.060547 1.5e-5,6.499e-4 1.5e-5,0.0013 0,0.00195 -0.048512,0.053133 -0.08702,0.08303 -0.1171875,0.097656 -0.00551,0.00255 -0.011506,0.00388 -0.017578,0.00391 H 8.4921875 c -0.00541,-2.92e-4 -0.010715,-0.00162 -0.015625,-0.00391 L 8.1484375,2.1367188 c -6.499e-4,1.5e-5 -0.0013,1.5e-5 -0.00195,0 h -0.00195 -0.00977 c -6.122e-4,0 -0.013332,0.00455 -0.011719,0.00195 -0.00246,0.00396 -0.00179,0.00203 0,0.013672 6.71e-4,6.287e-4 0.00132,0.00128 0.00195,0.00195 l 0.017578,0.1542969 c 6.02e-5,0.0013 6.02e-5,0.00261 0,0.00391 v 2.5566406 c 1.5e-5,6.499e-4 1.5e-5,0.0013 0,0.00195 L 8.125,5.15625 c 2.985e-4,6.729e-4 -2.967e-4,0.00129 0,0.00195 0.011869,0.026613 0.022149,0.048712 0.03125,0.0625 0.00288,0.00436 0.00614,0.00889 0.013672,0.015625 0.00651,0.00583 0.00488,0.0043 0.00391,0.00391 6.196e-4,-5.75e-5 0.00564,0 0.00586,0 0.085182,0 0.1478918,-0.00574 0.1894531,-0.019531 0.019817,-0.00657 0.035004,-0.013647 0.046875,-0.025391 0.00886,-0.00877 0.013672,-0.023376 0.013672,-0.035156 10e-8,-0.030184 -0.00792,-0.1268699 -0.021484,-0.2851562 -6.02e-5,-0.0013 -6.02e-5,-0.00261 0,-0.00391 v -0.00391 -1.6113281 c -3.454e-4,-0.023873 0.019096,-0.043314 0.042969,-0.042969 h 0.6660156 c 0.025521,-5.126e-4 0.045694,0.021495 0.042969,0.046875 -0.00156,0.016172 -0.00391,0.024885 -0.00391,0.019531 0,0.017449 0.00463,0.03177 0.017578,0.046875 0.012489,0.01457 0.029735,0.023437 0.044922,0.023437 0.079415,0 0.1397803,-0.00414 0.1796875,-0.015625 0.013568,-0.0039 0.024563,-0.00791 0.037109,-0.015625 0.00536,-0.00323 0.011358,-0.00523 0.017578,-0.00586 -0.00158,-0.00784 -8.991e-4,-0.015965 0.00195,-0.023437 0.00274,-0.00628 0.00391,-0.00713 0.00586,-0.00977 L 9.4394531,3.0390625 c -6.02e-5,-0.0013 -6.02e-5,-0.00261 0,-0.00391 V 2.5019531 c 3.763e-4,-0.00931 0.00381,-0.018232 0.00977,-0.025391 l 0.091797,-0.125 c 0,-0.021002 -0.00858,-0.042261 -0.029297,-0.068359 -0.020879,-0.026301 -0.052127,-0.054361 -0.09375,-0.087891 -0.041832,-0.033698 -0.073524,-0.059406 -0.097656,-0.076172 -0.011226,-0.0078 -0.022052,-0.014537 -0.03125,-0.019531 -0.002,-0.00109 -0.00438,-0.00263 -0.00781,-0.00391 -9.89e-5,-3e-6 -0.0012,1.164e-4 -0.00195,0 -0.00112,4.53e-5 -0.00542,0 -0.00586,0 -1.086e-4,0 -0.00118,4.32e-5 -0.00195,0 z m 1.7265626,0 -0.197266,0.171875 c -0.0074,0.00708 -0.01711,0.011246 -0.02734,0.011719 h -0.574219 c -0.0046,1.02e-4 -0.0093,-5.567e-4 -0.01367,-0.00195 -0.0362,-0.012319 -0.09701,-0.039359 -0.1875001,-0.080078 -0.045983,-0.020692 -0.0821,-0.036246 -0.109375,-0.046875 -0.015193,-0.00592 -0.025543,-0.00996 -0.03125,-0.011719 -0.00745,-0.0023 -0.00591,-0.00195 -0.017578,-0.00195 -6.123e-4,0 -0.013333,0.00455 -0.011719,0.00195 -0.00246,0.00396 -0.00179,0.00203 0,0.013672 6.71e-4,6.287e-4 0.00132,0.00128 0.00195,0.00195 l 0.017578,0.1542969 c 6.02e-5,0.0013 6.02e-5,0.00261 0,0.00391 v 0.8417969 c 1.353e-4,0.00195 1.353e-4,0.00391 0,0.00586 -0.00425,0.035369 -0.00759,0.070888 -0.00977,0.1035157 1.5e-5,6.499e-4 1.5e-5,0.0013 0,0.00195 -0.0017,0.023775 0.00169,0.0412 0.011719,0.060547 0.016183,0.031876 -0.011961,0.06823 -0.046875,0.060547 -0.027767,-0.00619 -0.046073,-0.01272 -0.080078,-0.017578 -0.057026,-0.00814 -0.1037105,-0.013321 -0.1367187,-0.017578 -0.033016,-0.00425 -0.050747,-0.00586 -0.064453,-0.00586 -0.00595,0 -0.010145,3.199e-4 -0.015625,0.00195 -0.00195,1.353e-4 -0.00391,1.353e-4 -0.00586,0 1.5e-5,6.499e-4 1.5e-5,0.0013 0,0.00195 1.54e-4,0.00135 -2.762e-4,0.00234 0,0.00391 v 0.00195 c 9.689e-4,0.00516 9.689e-4,0.010462 0,0.015625 0.00121,0.00857 0.00438,0.016086 0.00586,0.027344 0.00345,0.026176 0.00974,0.068189 0.015625,0.1210937 6.02e-5,0.0013 6.02e-5,0.00261 0,0.00391 v 0.1660156 c 3.454e-4,0.023873 -0.019096,0.043314 -0.042969,0.042969 H 8.9121094 c -0.1143009,-0.00228 -0.2385644,-0.016835 -0.375,-0.037109 l 0.1386718,0.1855469 c 1.449e-4,0 0.00215,-7e-6 0.00391,0 0,0 -1.47e-5,0.00179 0,0.00195 0.00191,1.224e-4 -6.208e-4,2.069e-4 0.00586,-0.00195 -6.045e-4,4.46e-5 -0.00208,1.35e-5 -0.00195,0 7.67e-5,-8.2e-6 -0.00118,-1.491e-4 -0.00195,0 0.00442,-0.00183 0.00843,-0.00425 0.00781,-0.00391 0.00545,-0.00301 0.012034,-0.00802 0.023437,-0.015625 0.00477,-0.00297 0.01008,-0.00496 0.015625,-0.00586 0.00173,-8.683e-4 0.0041,-0.0012 0.00586,-0.00195 h 0.00195 c 0.00859,-0.0035 0.015177,-0.00854 0.027344,-0.011719 0.021515,-0.00561 0.048351,-0.011179 0.082031,-0.013672 0.0013,-6.02e-5 0.00261,-6.02e-5 0.00391,0 h 0.4589844 c 0.033516,-7.697e-4 0.054602,0.035854 0.037109,0.064453 -0.1639127,0.2898174 -0.4277134,0.5558336 -0.7968835,0.7968793 -6.499e-4,1.5e-5 -0.0013,1.5e-5 -0.00195,0 -0.019226,0.011948 -0.029297,0.038111 -0.029297,0.064453 0,0.016414 -1.288e-4,0.020598 0.00391,0.029297 -7.822e-4,-0.00168 0.00194,0.00323 0.00586,0.00586 0.00392,0.00263 0.00799,0.00195 0.00586,0.00195 0.015903,0 0.034047,-0.00268 0.056641,-0.011719 0.3694345,-0.1481844 0.6514762,-0.3449125 0.8574135,-0.5839816 0.025582,-0.0292 0.073696,-0.011473 0.074219,0.027344 v 0.3613282 c 6.02e-5,0.0013 6.02e-5,0.00261 0,0.00391 l -0.025391,0.2773438 v 0.00195 c 0.00361,0.027666 0.010824,0.050332 0.023437,0.064453 0.011733,0.013134 0.030688,0.019531 0.050781,0.019531 0.076957,0 0.134291,-0.00514 0.1738281,-0.017578 0.036348,-0.011436 0.058461,-0.028649 0.064453,-0.050781 -6.02e-5,-0.0013 -6.02e-5,-0.00261 0,-0.00391 0,-0.00797 -5.831e-4,-0.00927 -0.00195,-0.023437 -0.00129,-0.013354 -0.00325,-0.032149 -0.00586,-0.056641 -0.00509,-0.047799 -0.013283,-0.1186627 -0.023437,-0.2089843 -6.02e-5,-0.0013 -6.02e-5,-0.00261 0,-0.00391 v -0.0039 -0.4941406 c 1.251e-4,-0.040576 0.051723,-0.057776 0.07617,-0.025391 0.1899653,0.2578269 0.4400103,0.5041897 0.7539063,0.7363281 l 0.201172,-0.3183593 c 0.02292,-0.036157 0.07889,-0.019368 0.07813,0.023437 v 0.375 c 0,0.00419 -9.31e-4,0.00838 -0.002,0.013672 -5.12e-4,0.00265 -0.0018,0.00934 -0.002,0.00977 -1.67e-4,4.27e-4 -0.0057,0.0095 -0.0059,0.00977 -1.97e-4,2.638e-4 -0.0096,0.00961 -0.0098,0.00977 -4.3e-5,3.08e-5 -0.0014,-2.994e-4 -0.002,0 1.35e-4,-1.062e-4 -0.0035,0.00247 -0.0059,0.00391 -0.0016,8.681e-4 -0.0025,0.00131 -0.0039,0.00195 -0.0029,0.00128 -0.0063,0.00283 -0.0098,0.00391 -0.007,0.00215 -0.01702,0.00521 -0.02734,0.00586 -0.002,1.371e-4 -0.0039,1.371e-4 -0.0059,0 l -0.632812,-0.054687 h -0.002 c -0.0143,0 -0.02184,0.00176 -0.0293,0.00781 -0.0049,0.00397 -0.0098,0.014686 -0.0098,0.023437 0,0.00793 0.006,0.02028 0.0098,0.023437 0.0073,0.00608 0.01965,0.010116 0.03516,0.013672 0.248288,0.00928 0.463233,0.097024 0.646484,0.2617187 0.01993,0.01771 0.04372,0.027344 0.06641,0.027344 0.06378,0 0.124536,-0.026878 0.179688,-0.082031 -1.5e-5,-6.499e-4 -1.5e-5,-0.0013 0,-0.00195 0.05457,-0.052665 0.08008,-0.10296 0.08008,-0.1523438 V 2.5078125 c -5.8e-5,-0.00998 0.0034,-0.019669 0.0098,-0.027344 l 0.113281,-0.140625 v -0.00195 c 0,-0.015818 -0.0027,-0.027608 -0.01367,-0.042969 -0.01101,-0.015361 -0.03019,-0.033583 -0.05469,-0.054687 -0.0471,-0.040581 -0.117671,-0.086471 -0.212891,-0.1445313 z m -0.390625,2.703125 c 6.51e-4,6.511e-4 0.002,6.511e-4 0.002,0 -2.08e-4,-0.00225 -0.0011,0 -0.002,0 z M 8.4511719,2.359375 h 0.6679687 c 0.017402,2.251e-4 0.032895,0.011071 0.039063,0.027344 -5.134e-4,-0.00121 0.011719,0.00563 0.011719,0.035156 v 0.2246094 c 3.454e-4,0.023873 -0.019096,0.043314 -0.042969,0.042969 H 8.4511719 c -0.023873,3.453e-4 -0.043314,-0.019096 -0.042969,-0.042969 V 2.4023438 c -3.453e-4,-0.023873 0.019096,-0.043314 0.042969,-0.042969 z m 1.7070311,0 h 0.675781 c 0.0174,2.263e-4 0.03289,0.011071 0.03906,0.027344 1.52e-4,4.112e-4 0.0098,0.013883 0.0098,0.035156 v 0.2246094 c 3.45e-4,0.023873 -0.0191,0.043315 -0.04297,0.042969 h -0.681641 c -0.02387,3.46e-4 -0.04331,-0.019096 -0.04297,-0.042969 V 2.4023438 c -3.45e-4,-0.023873 0.0191,-0.043315 0.04297,-0.042969 z M 8.4511719,2.7714844 h 0.6757812 c 0.023873,-3.454e-4 0.043314,0.019096 0.042969,0.042969 v 0.2734375 c 3.454e-4,0.023873 -0.019096,0.043314 -0.042969,0.042969 H 8.4511719 c -0.023873,3.453e-4 -0.043314,-0.019096 -0.042969,-0.042969 V 2.8144531 c -3.453e-4,-0.023872 0.019096,-0.043314 0.042969,-0.042969 z m 1.7070311,0 h 0.681641 c 0.02387,-3.46e-4 0.04331,0.019096 0.04297,0.042969 v 0.2695313 c 3.45e-4,0.023873 -0.0191,0.043315 -0.04297,0.042969 h -0.681641 c -0.02387,3.46e-4 -0.04331,-0.019096 -0.04297,-0.042969 V 2.8144531 c -3.45e-4,-0.023873 0.0191,-0.043315 0.04297,-0.042969 z m 0.0039,0.4414062 c 0.002,-1.371e-4 0.0039,-1.371e-4 0.0059,0 h 0.675781 c 0.02387,-3.46e-4 0.04331,0.019096 0.04297,0.042969 v 1.1582031 c 3.45e-4,0.023873 -0.0191,0.043315 -0.04297,0.042969 -0.0053,3.329e-4 -0.01059,-3.286e-4 -0.01563,-0.00195 C 10.49369,4.3464357 10.193071,4.1591846 9.9199219,3.9023438 9.8899576,3.8761292 9.9094279,3.8268044 9.9492189,3.8281248 h 0.7363281 c 0.02739,0 0.04398,-0.00104 0.05664,-0.00781 0.0059,-0.00314 0.01562,-0.021203 0.01562,-0.029297 0,-0.015141 -0.0054,-0.025237 -0.01953,-0.044922 -0.01325,-0.018462 -0.03324,-0.040582 -0.06055,-0.066406 C 10.623907,3.6287908 10.543576,3.5648293 10.4375,3.4882812 L 10.236328,3.71875 c -0.0077,0.00946 -0.01907,0.015155 -0.03125,0.015625 L 9.8203125,3.7324219 C 9.79644,3.7327672 9.7769985,3.7133256 9.7773438,3.6894531 V 3.546875 c 5.049e-4,-0.011189 0.00542,-0.021723 0.013672,-0.029297 l 0.097656,-0.097656 v -0.00195 c -1.59e-5,-6.918e-4 6.09e-5,-0.00102 0,-0.00195 -0.011563,-0.027869 0.00889,-0.058549 0.039063,-0.058594 0.060328,-0.00135 0.1120972,-0.00482 0.1425772,-0.013672 0.01945,-0.00565 0.0348,-0.013246 0.04492,-0.021484 0.0085,-0.00693 0.01591,-0.016213 0.01758,-0.027344 -1.5e-5,-6.499e-4 -1.5e-5,-0.0013 0,-0.00195 l -0.0059,-0.029297 c -0.0051,-0.023901 0.01098,-0.04717 0.03516,-0.050781 z"
       style="font-style:normal;font-variant:normal;font-weight:normal;font-stretch:normal;font-size:3.47472px;line-height:1.25;font-family:'Sawarabi Mincho';-inkscape-font-specification:'Sawarabi Mincho, Normal';font-variant-ligatures:normal;font-variant-caps:normal;font-variant-numeric:normal;font-variant-east-asian:normal;fill:#000000;fill-opacity:1;stroke:none;stroke-width:0.264582"
       id="path852" />
    <path
       d="m 12.876953,2.0571614 c -3.25e-4,0 -0.0092,0.00221 -0.01563,0.00586 -0.0065,0.00365 -0.0094,0.00899 -0.0098,0.00977 -0.0061,0.013936 -0.0046,0.018806 0,0.037109 0.0074,0.030146 0.0078,0.073346 0.0078,0.140625 v 0.5039063 c -4.87e-4,0.023527 -0.01944,0.042482 -0.04297,0.042969 H 11.8769 11.8749 c -6.67e-4,1.52e-5 -0.0013,1.52e-5 -0.002,0 -0.185454,-0.00465 -0.341874,-0.016239 -0.472656,-0.039063 -0.0027,-4.1e-4 -0.0053,-0.00106 -0.0078,-0.00195 -0.0072,-0.00259 -0.0053,-0.00221 -0.0039,-0.00195 -0.0084,-0.00156 -0.0075,-0.00185 -0.0059,-0.00195 l -0.002,0.00195 c -0.0033,0.00101 -0.0035,0.00176 -0.0039,0.00195 -9.08e-4,3.932e-4 -0.0052,0.00318 -0.0059,0.00391 -0.0018,0.0026 -0.0038,0.00823 -0.002,0.00391 -2.93e-4,6.543e-4 -8.66e-4,-0.00314 -0.002,0.00391 1.31e-4,0.00195 1.31e-4,0.00391 0,0.00586 -0.0024,0.010838 0.0041,0.027573 0.0098,0.033203 1.4e-5,6.499e-4 1.4e-5,0.0013 0,0.00195 h 0.002 l 0.002,0.00195 0.189453,0.1386718 c 0.0015,0.00104 0.0041,0.00198 0.0059,0.00195 0.01099,0 0.01509,-0.00228 0.0293,-0.00586 0.01048,-0.00264 0.02738,-0.00805 0.04883,-0.015625 l 0.01367,-0.00195 h 0.002 c 0.03873,-0.01292 0.0834,-0.021235 0.144531,-0.023437 6.67e-4,-1.52e-5 0.0013,-1.52e-5 0.002,0 h 1.003906 c 0.02353,4.868e-4 0.04248,0.019442 0.04297,0.042969 v 0.6972657 c -4.87e-4,0.023527 -0.01944,0.042482 -0.04297,0.042969 h -0.49414 c -0.0059,5.498e-4 -0.01191,-1.136e-4 -0.01758,-0.00195 l -0.347576,-0.1465009 -0.002,-0.00195 c 0.002,0 -0.0031,0.0016 -0.0059,0.00195 -4.06e-4,4.575e-4 -0.0034,-5.431e-4 -0.0039,0 v 0.00195 c -6.37e-4,3.541e-4 -0.0017,-1.68e-4 -0.002,0 -2.56e-4,2.931e-4 2.57e-4,0.00166 0,0.00195 -0.0031,0.00355 -0.0017,0.00349 -0.002,0.00391 l -0.002,0.00195 c -0.0013,0.00245 -0.0029,0.00661 -0.002,0.00391 -0.0033,0.00963 -0.0034,0.010004 -0.002,0.021484 0.0058,0.046071 0.01068,0.08292 0.01367,0.109375 0.0015,0.013434 0.0033,0.025496 0.0039,0.033203 1.59e-4,0.00193 -1.11e-4,0.0025 0,0.00391 -6.52e-4,4.32e-5 0,0.00131 0,0.00196 4.3e-5,5.367e-4 -2.9e-5,0.0016 0,0.00195 -0.0016,0.00113 0,0.00391 0,0.00586 V 4.740761 c 1.4e-5,6.499e-4 1.4e-5,0.0013 0,0.00195 l -0.01758,0.2871094 c 1.4e-5,6.499e-4 1.4e-5,0.0013 0,0.00195 0.0024,0.028549 0.0097,0.051825 0.02344,0.068359 0.01136,0.013626 0.03503,0.023437 0.05469,0.023437 0.08275,0 0.143291,-0.00703 0.1875,-0.021484 0.02335,-0.00764 0.03965,-0.016336 0.05078,-0.027344 0.0096,-0.00947 0.01953,-0.029544 0.01953,-0.042969 0,-0.00624 -7.76e-4,-0.00485 -0.002,-0.015625 -3.99e-4,-0.00376 -0.0023,-0.011204 -0.0039,-0.025391 -1.4e-5,-6.499e-4 -1.4e-5,-0.0013 0,-0.00195 -0.0016,-0.014111 -0.0025,-0.034242 -0.0039,-0.046875 -0.0017,-0.025037 0.01788,-0.046409 0.04297,-0.046875 h 1.457031 c 0.02509,4.661e-4 0.04468,0.021838 0.04297,0.046875 -0.0038,0.036078 -0.0078,0.076622 -0.0078,0.099609 0,0.024738 0.008,0.046891 0.02149,0.060547 0.01324,0.013466 0.03458,0.021484 0.05859,0.021484 0.08137,0 0.141478,-0.00758 0.185547,-0.019531 0.02348,-0.00638 0.03883,-0.012147 0.05078,-0.021484 0.0104,-0.00813 0.02173,-0.022498 0.02344,-0.033203 v -0.00195 c -1.4e-5,-6.499e-4 -1.4e-5,-0.0013 0,-0.00195 0,-0.012374 -0.0021,-0.037055 -0.0059,-0.087891 -0.0036,-0.049633 -0.0089,-0.1206998 -0.01563,-0.2109376 -5.8e-5,-0.0013 -5.8e-5,-0.00261 0,-0.00391 v -0.00391 -0.8164063 c 1.11e-4,-0.012819 0.0058,-0.024949 0.01563,-0.033203 0.0111,-0.00922 0.02792,-0.022932 0.05273,-0.037109 0.02573,-0.014702 0.04252,-0.02458 0.05469,-0.035156 0.01827,-0.015871 0.02344,-0.013183 0.02344,-0.033203 0,-0.025387 -0.01258,-0.0472 -0.03516,-0.076172 -0.02135,-0.027403 -0.05341,-0.060105 -0.0957,-0.095703 -0.0013,-5.85e-4 -0.0026,-0.00124 -0.0039,-0.00195 l -0.002,-0.00195 c -0.08269,-0.073233 -0.133858,-0.1113282 -0.185547,-0.1113282 -0.02585,0 -0.02159,0.00387 -0.04492,0.023438 -0.01702,0.014264 -0.03635,0.036685 -0.0625,0.066406 -0.04605,0.052628 -0.07799,0.08217 -0.105469,0.097656 -0.0067,0.00309 -0.01411,0.00444 -0.02149,0.00391 h -0.501953 c -0.02353,-4.868e-4 -0.04248,-0.019442 -0.04297,-0.042969 V 2.9477864 c 4.87e-4,-0.023527 0.01944,-0.042482 0.04297,-0.042969 h 1.371094 c 0.02803,0 0.04752,-0.00425 0.06445,-0.011719 0.007,-0.00311 0.02539,-0.025193 0.02539,-0.033203 -10e-7,-0.017706 -0.0067,-0.026691 -0.02149,-0.046875 -0.01335,-0.018212 -0.03005,-0.03749 -0.05469,-0.060547 -0.04971,-0.046528 -0.124063,-0.1050262 -0.222656,-0.1757812 -0.0034,-0.00246 -0.009,-0.00119 -0.01172,0.00195 l -0.181641,0.2050781 c -0.0086,0.00908 -0.02069,0.014057 -0.0332,0.013672 h -0.935547 c -0.02353,-4.868e-4 -0.04248,-0.019442 -0.04297,-0.042969 V 2.2622395 c -7.7e-5,-0.01932 0.0076,-0.028853 0.0136,-0.033206 0.0067,-0.00744 0.01648,-0.015354 0.0332,-0.025391 0.01752,-0.01051 0.02868,-0.019161 0.03906,-0.029297 0.01301,-0.012693 0.01758,-0.013283 0.01758,-0.027344 l -0.002,-0.00195 c -4.83e-4,-0.00315 -0.0012,-0.00729 0,-0.00391 -2.64e-4,-7.183e-4 -0.0028,-0.00634 -0.0039,-0.00781 -8.04e-4,-0.00107 7.5e-5,6.485e-4 -0.0098,-0.00586 -0.0097,-0.00641 -0.01849,-0.010913 -0.0332,-0.015625 -0.02875,-0.00921 -0.06901,-0.017225 -0.125,-0.025391 -6.67e-4,1.52e-5 -0.0013,1.52e-5 -0.002,0 -0.111902,-0.01865 -0.180347,-0.029297 -0.214844,-0.029297 z m -0.576172,1.7226563 h 1.46875 c 0.01972,-4.217e-4 0.03729,0.012362 0.04297,0.03125 0.0012,0.00402 0.0059,0.018715 0.0059,0.039063 v 0.9101562 c -4.87e-4,0.023527 -0.01944,0.042482 -0.04297,0.042969 h -1.47461 c -0.02353,-4.868e-4 -0.04248,-0.019442 -0.04297,-0.042969 v -0.9375 c 4.87e-4,-0.023527 0.01944,-0.042482 0.04297,-0.042969 z"
       style="font-style:normal;font-variant:normal;font-weight:normal;font-stretch:normal;font-size:3.47472px;line-height:1.25;font-family:'Sawarabi Mincho';-inkscape-font-specification:'Sawarabi Mincho, Normal';font-variant-ligatures:normal;font-variant-caps:normal;font-variant-numeric:normal;font-variant-east-asian:normal;fill:#000000;fill-opacity:1;stroke:none;stroke-width:0.264582"
       id="path854" />
    <path
       d="m 16.005859,1.9453125 c -0.0064,8.152e-4 -0.01709,0.00746 -0.01953,0.00977 -0.0056,0.00533 -0.0088,0.00982 -0.01367,0.019531 -1.6e-4,5.621e-4 8.3e-5,0.00137 0,0.00195 a 0.03944047,0.03944047 0 0 1 0,0.00195 c -0.03728,0.1886217 -0.10668,0.3406198 -0.199218,0.4628906 a 0.03944047,0.03944047 0 0 1 -0.03125,0.015625 h -0.3125 a 0.03944047,0.03944047 0 0 1 -0.01563,-0.00391 L 15.0625,2.2949219 a 0.03944047,0.03944047 0 0 1 -0.002,0 c -0.0011,-5.956e-4 -0.0026,-0.00172 -0.0039,-0.00195 h -0.002 c -0.003,0.00104 -0.01389,0.00923 -0.01563,0.011719 -0.0058,0.00823 -0.0078,0.012726 -0.0078,0.019531 0,0.014991 0.0047,0.026853 0.0098,0.054687 0.0051,0.025451 0.0039,0.058747 0.0039,0.109375 v 1.4785157 a 0.03944047,0.03944047 0 0 1 0,0.00195 L 15.0312,4.2636715 c -0.0011,0.021574 0.0076,0.042677 0.02148,0.056641 4.2e-4,4.227e-4 -4.32e-4,0.00155 0,0.00195 3.96e-4,2.501e-4 0.0019,-3.67e-5 0.002,0 a 0.03944047,0.03944047 0 0 1 0.0098,0.048828 c -0.09155,0.1972465 -0.216816,0.3846517 -0.378906,0.5625 -0.01788,0.020151 -0.0331,0.038371 -0.04297,0.050781 -0.0067,0.0085 -0.0099,0.010784 -0.01172,0.013672 0.0032,-0.00507 -3.09e-4,-3.495e-4 -0.0039,0.00781 -0.0013,0.00285 -0.0012,0.00449 -0.002,0.00586 0,0 0,0.00195 0,0.00195 0,0.013502 0.0028,0.020276 0.0098,0.039063 a 0.03944047,0.03944047 0 0 1 0,0.00195 c 0.0072,0.025236 0.0215,0.048282 0.03711,0.0625 0.01471,0.013399 0.0346,0.021484 0.05469,0.021484 0.04268,0 0.104364,-0.014738 0.191407,-0.042969 4.98e-4,-1.431e-4 0.0015,-0.00175 0.002,-0.00195 0.06569,-0.035942 0.115022,-0.1041814 0.152344,-0.2070312 0.0367,-0.1011307 0.06123,-0.2369288 0.07422,-0.4023438 a 0.03944047,0.03944047 0 0 1 0,-0.00391 c 0.0028,-0.014195 0.0059,-0.025721 0.0059,-0.037109 v -0.00195 c -9.65e-4,-0.015719 -0.0065,-0.029364 -0.01367,-0.048828 a 0.03944047,0.03944047 0 0 1 0.03516,-0.052734 c 0.05124,-0.00207 0.104195,-0.00562 0.13086,-0.011719 0.02247,-0.00514 0.03913,-0.010321 0.05273,-0.019531 0.0087,-0.00592 0.02053,-0.022283 0.02148,-0.033203 a 0.03944047,0.03944047 0 0 1 -0.002,-0.00391 c -0.0017,-0.011336 -0.0027,-0.021235 -0.0039,-0.029297 a 0.03944047,0.03944047 0 0 1 0.03906,-0.044922 h 1.869141 a 0.03944047,0.03944047 0 0 1 0.03711,0.027344 c 0.0017,0.00527 0.0034,0.00665 0.0039,0.00781 a 0.03944047,0.03944047 0 0 1 0.002,0.017578 c -0.0013,0.037552 -0.01209,0.1048774 -0.03125,0.2070312 -0.01916,0.1021539 -0.04594,0.2354954 -0.08203,0.3984376 a 0.03944047,0.03944047 0 0 1 -0.0098,0.017578 c -0.04114,0.047894 -0.08073,0.076485 -0.126953,0.078125 a 0.03944047,0.03944047 0 0 1 -0.0059,0 l -0.58789,-0.052734 a 0.03944047,0.03944047 0 0 1 -0.0293,-0.058594 c 0.01373,-0.022698 0.02148,-0.046784 0.02148,-0.072266 0,-0.045272 -0.0044,-0.074632 -0.01953,-0.099609 a 0.03944047,0.03944047 0 0 1 0,-0.00195 c -4.41e-4,-7.6e-4 -0.0015,-0.00119 -0.002,-0.00195 -0.06123,-0.1047423 -0.149804,-0.2025501 -0.267578,-0.2949219 -0.0329,-0.02586 -0.06732,-0.038731 -0.09961,-0.03125 a 0.03944047,0.03944047 0 0 1 -0.0039,0 c -0.01442,0.00276 -0.02155,0.0057 -0.03125,0.013672 -0.0063,0.00514 -0.01563,0.021983 -0.01563,0.027344 7e-6,0.00236 7.12e-4,0.00385 0.002,0.00586 0.081,0.1327463 0.143378,0.2811234 0.191406,0.4472656 a 0.03944047,0.03944047 0 0 1 0.0059,0.011719 c 0.0054,0.016292 0.01906,0.031846 0.0332,0.039063 0.01773,0.00905 0.03914,0.013672 0.06445,0.013672 0.0025,0 0.0048,1.96e-5 0.0059,0 a 0.03944047,0.03944047 0 0 1 0.03711,0.050781 c -0.0025,0.00837 -0.0038,0.010494 -0.0059,0.013672 0.0011,0.010675 0.0074,0.020471 0.01562,0.027344 0.01169,0.00971 0.02292,0.016519 0.03906,0.023438 0.0015,6.23e-4 0.0023,0.00194 0.0039,0.00195 a 0.03944047,0.03944047 0 0 1 0.002,0 c 0.223403,0.00922 0.38351,0.05218 0.482422,0.1308593 l 0.136719,0.109375 c 0.0023,0.00186 0.0049,0.00392 0.0078,0.00391 0.222265,-0.00234 0.371833,-0.098415 0.435546,-0.2753906 a 0.03944047,0.03944047 0 0 1 0,-0.00195 c 0.0692,-0.1631728 0.112722,-0.3879023 0.12687,-0.6757792 a 0.03944047,0.03944047 0 0 1 0.0078,-0.021484 c 0,0 0,-0.00195 0,-0.00195 a 0.03944047,0.03944047 0 0 1 0.002,0 c -10e-6,1.28e-5 -2.88e-4,-0.00168 0,-0.00195 7.95e-4,-0.00109 0.0028,-0.00245 0.0039,-0.00391 0.002,-0.00258 0.0029,-0.00437 0.0059,-0.00781 0.0093,-0.01077 0.02443,-0.025602 0.04492,-0.041016 a 0.03944047,0.03944047 0 0 1 0,-0.00195 c 0.0241,-0.016875 0.04385,-0.030422 0.05664,-0.044922 0.01409,-0.015966 0.02148,-0.027452 0.02148,-0.044922 0,-0.015532 -0.0031,-0.020358 -0.0078,-0.027344 -0.0047,-0.00699 -0.01455,-0.015938 -0.02734,-0.029297 C 17.703934,4.056529 17.674583,4.0316154 17.634766,4 17.553936,3.935811 17.500449,3.902344 17.449219,3.902344 c -0.01184,0 -0.0077,4.055e-4 -0.01953,0.00781 -0.0064,0.00403 -0.0146,0.00972 -0.02344,0.017578 -0.01714,0.015225 -0.03717,0.036828 -0.0625,0.064453 -0.04543,0.049755 -0.08156,0.076178 -0.107422,0.089844 a 0.03944047,0.03944047 0 0 1 -0.01758,0.00391 H 15.396484 A 0.03944047,0.03944047 0 0 1 15.357422,4.046875 V 3.8398438 a 0.03944047,0.03944047 0 0 1 0.03906,-0.039063 h 2.015625 c 0.02688,0 0.04633,-0.00299 0.06445,-0.013672 0.01161,-0.00684 0.02539,-0.032137 0.02539,-0.044922 -3e-6,-0.00362 -0.0012,-0.00736 -0.0039,-0.00977 a 0.03944047,0.03944047 0 0 1 -0.002,0 L 17.259766,3.5175781 c -0.0038,-0.00345 -0.0091,-0.00428 -0.01367,-0.00195 a 0.03944047,0.03944047 0 0 1 -0.05664,-0.035156 c -1.52e-4,-0.012781 -0.0023,-0.031284 -0.0059,-0.072266 -0.0036,-0.041675 -0.0089,-0.1005905 -0.01563,-0.1757812 a 0.03944047,0.03944047 0 0 1 0,-0.00391 v -0.00391 l 0.0098,-0.5273438 a 0.03944047,0.03944047 0 0 1 0.0098,-0.027344 l 0.134766,-0.140625 a 0.03944047,0.03944047 0 0 1 0.002,0 c 0.0024,-0.00238 0.0039,-0.00638 0.0039,-0.00977 0,-0.021178 -0.0057,-0.037701 -0.01953,-0.056641 -0.01378,-0.018939 -0.0371,-0.038302 -0.06445,-0.060547 -0.05305,-0.043139 -0.130637,-0.093023 -0.234375,-0.1484376 h -0.002 c -0.0014,-4.848e-4 -0.0024,-0.00199 -0.0039,-0.00195 a 0.03944047,0.03944047 0 0 1 -0.002,0 c -0.01495,0 -0.01712,0.00292 -0.02148,0.00586 -0.0044,0.00294 -0.01103,0.010085 -0.02344,0.021484 -0.01835,0.016865 -0.04096,0.041034 -0.06641,0.072266 a 0.03944047,0.03944047 0 0 1 -0.002,0 c -0.04734,0.055662 -0.0788,0.086514 -0.105469,0.1015625 a 0.03944047,0.03944047 0 0 1 -0.01953,0.00391 h -0.664063 a 0.03944047,0.03944047 0 0 1 -0.02539,-0.070312 l 0.173828,-0.1386719 a 0.03944047,0.03944047 0 0 1 0.002,0 c 0.002,-0.00159 0.0031,-0.00341 0.0039,-0.00586 a 0.03944047,0.03944047 0 0 1 0.01367,-0.017578 c -6.9e-5,-9.95e-5 -2e-6,-0.00195 0,-0.00195 a 0.03944047,0.03944047 0 0 1 0.0078,-0.00391 0.03944047,0.03944047 0 0 1 0.0078,-0.00195 c 0.0089,-0.00479 0.01838,-0.011898 0.03516,-0.015625 0.02242,-0.00472 0.03668,-0.00871 0.05078,-0.015625 0.0088,-0.00429 0.0086,-0.00442 0.01367,-0.00977 0.0024,-0.00249 0.0072,-0.00649 0.0078,-0.00781 8.79e-4,-0.00197 -4.79e-4,-0.00179 0,-0.00391 -9.8e-5,4.356e-4 0.0017,-0.00367 0.002,-0.00586 0,-0.022445 -0.0081,-0.028315 -0.02734,-0.044922 -0.016,-0.013784 -0.04198,-0.027551 -0.07422,-0.044922 -0.06293,-0.033914 -0.155113,-0.07467 -0.279297,-0.1210938 a 0.03944047,0.03944047 0 0 1 -0.002,0 c -8.23e-4,-3.398e-4 -0.0011,-0.00179 -0.002,-0.00195 z m -0.609375,0.6152344 h 1.429688 a 0.03944047,0.03944047 0 0 1 0.03906,0.029297 c -2.69e-4,-0.00113 0.0039,0.012424 0.0039,0.029297 v 0.2304688 a 0.03944047,0.03944047 0 0 1 -0.03906,0.039063 h -1.433594 a 0.03944047,0.03944047 0 0 1 -0.03906,-0.039063 v -0.25 a 0.03944047,0.03944047 0 0 1 0.03906,-0.039063 z m 0,0.4414062 h 1.433594 a 0.03944047,0.03944047 0 0 1 0.03906,0.039063 V 3.265625 a 0.03944047,0.03944047 0 0 1 -0.03906,0.039063 H 15.396484 A 0.03944047,0.03944047 0 0 1 15.357422,3.265625 V 3.0410156 a 0.03944047,0.03944047 0 0 1 0.03906,-0.039063 z m 0,0.4160157 h 1.425782 a 0.03944047,0.03944047 0 0 1 0.03906,0.044922 c -0.0013,0.010242 -0.002,0.020709 -0.002,0.033203 0,0.026753 0.0038,0.046469 0.01563,0.0625 0.0091,0.012403 0.03388,0.023437 0.05078,0.023437 0.06763,0 0.113309,-0.00884 0.158203,-0.019531 a 0.03944047,0.03944047 0 0 1 0.03711,0.068359 l -0.0605,0.056641 a 0.03944047,0.03944047 0 0 1 -0.02734,0.00977 H 15.396488 A 0.03944047,0.03944047 0 0 1 15.357428,3.658207 V 3.4570312 a 0.03944047,0.03944047 0 0 1 0.03906,-0.039062 z m 1.275391,0.8691406 c -0.02688,0 -0.04351,0.00162 -0.06055,0.011719 -0.0028,0.00165 -0.0095,0.010013 -0.01367,0.019531 -0.0042,0.00952 -0.0046,0.019446 -0.0039,0.023437 a 0.03944047,0.03944047 0 0 1 0,0.00195 c 3.13e-4,0.00208 6.98e-4,0.00417 0.002,0.00586 0.05659,0.068301 0.138122,0.2107348 0.244141,0.4296875 0.01143,0.024279 0.04048,0.046875 0.06445,0.046875 0.0554,0 0.0961,-0.00865 0.126953,-0.029297 0.02772,-0.018549 0.04687,-0.055959 0.04687,-0.091797 0,-0.035459 -0.01433,-0.077498 -0.04297,-0.1347656 -0.03309,-0.066183 -0.127133,-0.1402209 -0.292968,-0.25 -0.03263,-0.02175 -0.04165,-0.033203 -0.07031,-0.033203 z m -1.185547,0.035156 c -0.02135,0 -0.04373,0.00975 -0.05469,0.023437 -0.0029,0.00356 -0.0037,0.00747 -0.002,0.011719 0.08767,0.2145783 0.149367,0.4196578 0.18164,0.6132812 a 0.03944047,0.03944047 0 0 1 0,0.00195 l 0.01172,0.048828 0.002,0.00391 c 0.0014,0.021248 0.01063,0.045672 0.02539,0.056641 0.01898,0.014104 0.0441,0.019531 0.07617,0.019531 h 0.02149 c 0.03038,-0.00127 0.06204,-0.023362 0.08008,-0.054687 0.0197,-0.034198 0.03278,-0.08083 0.04102,-0.140625 a 0.03944047,0.03944047 0 0 1 0,-0.00391 v -0.029297 -0.00195 a 0.03944047,0.03944047 0 0 1 0,-0.00195 c 0.0022,-0.051535 -0.02093,-0.1114528 -0.06836,-0.1914062 -0.04729,-0.079705 -0.120209,-0.1750197 -0.216797,-0.2890625 a 0.03944047,0.03944047 0 0 1 0,-0.00195 l -0.002,-0.00195 c -0.01797,-0.020258 -0.03433,-0.036692 -0.04883,-0.046875 -0.01509,-0.010598 -0.02761,-0.015625 -0.04687,-0.015625 z"
       style="font-style:normal;font-variant:normal;font-weight:normal;font-stretch:normal;font-size:3.47472px;line-height:1.25;font-family:'Sawarabi Mincho';-inkscape-font-specification:'Sawarabi Mincho, Normal';font-variant-ligatures:normal;font-variant-caps:normal;font-variant-numeric:normal;font-variant-east-asian:normal;fill:#000000;fill-opacity:1;stroke:none;stroke-width:0.264582"
       id="path856" />
    <g
       id="g930"
       style="opacity:1;fill:none;fill-opacity:1">
      <path
         style="color:#000000;font-style:normal;font-variant:normal;font-weight:normal;font-stretch:normal;font-size:medium;line-height:normal;font-family:sans-serif;font-variant-ligatures:normal;font-variant-position:normal;font-variant-caps:normal;font-variant-numeric:normal;font-variant-alternates:normal;font-variant-east-asian:normal;font-feature-settings:normal;font-variation-settings:normal;text-indent:0;text-align:start;text-decoration:none;text-decoration-line:none;text-decoration-style:solid;text-decoration-color:#000000;letter-spacing:normal;word-spacing:normal;text-transform:none;writing-mode:lr-tb;direction:ltr;text-orientation:mixed;dominant-baseline:auto;baseline-shift:baseline;text-anchor:start;white-space:normal;shape-padding:0;shape-margin:0;inline-size:0;clip-rule:nonzero;display:inline;overflow:visible;visibility:visible;isolation:auto;mix-blend-mode:normal;color-interpolation:sRGB;color-interpolation-filters:linearRGB;solid-color:#000000;solid-opacity:1;vector-effect:none;fill:none;fill-opacity:1;fill-rule:nonzero;stroke:none;stroke-width:0;stroke-linecap:butt;stroke-linejoin:miter;stroke-miterlimit:4;stroke-dasharray:none;stroke-dashoffset:0;stroke-opacity:1;color-rendering:auto;image-rendering:auto;shape-rendering:auto;text-rendering:auto;enable-background:accumulate;stop-color:#000000;stop-opacity:1"
         d="M 3.175,0.25089479 C 1.4214959,0.25089479 0,1.6723907 0,3.4258948 5.5228473e-8,5.1793988 1.421496,6.6008947 3.175,6.6008947 3.4093485,6.6008438 3.642971,6.5748472 3.8715981,6.52338 3.7424307,6.3031009 2.4559301,4.1020954 2.302185,3.5364824 2.1405164,2.9417192 1.7787028,2.6006221 1.7787028,2.6006221 c 0,0 -0.3930546,0.040804 -1.01699221,-0.0894 C 1.1653957,2.1329714 1.7849039,2.0833411 1.784904,2.083341 c 0,0 0.3010356,-0.7824233 1.2371337,-0.7436238 0.9360982,0.038799 1.5474117,1.1178572 2.0804931,1.6019694 C 5.6191406,3.41084 6.2817001,3.8070667 6.323645,3.8320714 6.3411084,3.6973822 6.3499115,3.5617113 6.3499999,3.4258948 6.3499999,1.6723908 4.928504,0.25089485 3.175,0.25089479 Z"
         id="path932" />
      <path
         style="color:#000000;font-style:normal;font-variant:normal;font-weight:normal;font-stretch:normal;font-size:medium;line-height:normal;font-family:sans-serif;font-variant-ligatures:normal;font-variant-position:normal;font-variant-caps:normal;font-variant-numeric:normal;font-variant-alternates:normal;font-variant-east-asian:normal;font-feature-settings:normal;font-variation-settings:normal;text-indent:0;text-align:start;text-decoration:none;text-decoration-line:none;text-decoration-style:solid;text-decoration-color:#000000;letter-spacing:normal;word-spacing:normal;text-transform:none;writing-mode:lr-tb;direction:ltr;text-orientation:mixed;dominant-baseline:auto;baseline-shift:baseline;text-anchor:start;white-space:normal;shape-padding:0;shape-margin:0;inline-size:0;clip-rule:nonzero;display:inline;overflow:visible;visibility:visible;isolation:auto;mix-blend-mode:normal;color-interpolation:sRGB;color-interpolation-filters:linearRGB;solid-color:#000000;solid-opacity:1;vector-effect:none;fill:none;fill-opacity:1;fill-rule:nonzero;stroke:none;stroke-width:0;stroke-linecap:butt;stroke-linejoin:miter;stroke-miterlimit:4;stroke-dasharray:none;stroke-dashoffset:0;stroke-opacity:1;color-rendering:auto;image-rendering:auto;shape-rendering:auto;text-rendering:auto;enable-background:accumulate;stop-color:#000000;stop-opacity:1"
         d="m 3.1757812,0.234375 c -1.7621511,0 -3.19140621,1.4292551 -3.1914062,3.1914062 6e-8,1.7621511 1.4292552,3.1914063 3.1914062,3.1914063 C 3.4113107,6.6171363 3.6452208,6.5907891 3.875,6.5390625 L 3.896484,6.5332025 3.884765,6.5156245 C 3.8202195,6.4055496 3.4662383,5.8006028 3.109375,5.1523438 2.9309434,4.8282142 2.753462,4.4921274 2.609375,4.203125 2.465288,3.9141226 2.3560031,3.6716907 2.3183594,3.5332031 2.155512,2.9341033 1.7890625,2.5898438 1.7890625,2.5898438 l -0.00391,-0.00586 h -0.00781 c 0,0 -0.3931037,0.021505 -0.95117192,-0.082031 C 1.2229809,2.1791667 1.7871094,2.0996094 1.7871094,2.0996094 l 0.00977,-0.00195 0.00391,-0.00781 c 0,0 0.073801,-0.192485 0.2636719,-0.3808594 0.1898708,-0.1883745 0.4934995,-0.3727282 0.9570313,-0.3535156 0.462061,0.019151 0.8444051,0.2949664 1.1796875,0.6289062 0.3352824,0.3339398 0.6219578,0.7247628 0.890625,0.96875 0.5183309,0.4707164 1.1824624,0.867453 1.2246093,0.8925781 l 0.019531,0.011719 0.00391,-0.023437 c 0.017551,-0.1353679 0.025302,-0.2717022 0.025391,-0.4082032 0,-1.762151 -1.4273021,-3.19140614 -3.1894532,-3.1914062 z m 0,0.0332031 c 1.7448571,6e-8 3.1582032,1.4133461 3.1582032,3.1582031 -8.21e-5,0.1259879 -0.00833,0.2518915 -0.023437,0.3769532 C 6.2483123,3.7655371 5.6191015,3.3890425 5.1132812,2.9296875 4.848867,2.6895625 4.5622786,2.2992077 4.2246094,1.9628906 3.8869401,1.6265736 3.4974746,1.3438664 3.0234375,1.3242188 2.5508712,1.3046318 2.2356871,1.4924096 2.0410156,1.6855469 1.8492159,1.8758351 1.7756708,2.0665296 1.7734375,2.0722656 1.7619048,2.0731986 1.1552928,2.1202429 0.75,2.5 l -0.0214844,0.021484 0.0292969,0.00586 c 0.6187953,0.1291308 1.0028427,0.090737 1.0117187,0.089844 0.00404,0.00383 0.3580027,0.3367654 0.5175782,0.9238281 0.039229,0.144319 0.1485596,0.3880859 0.2929687,0.6777344 0.1444092,0.2896485 0.3233956,0.6248604 0.5019531,0.9492188 0.3515437,0.6385957 0.6912398,1.2182101 0.7636719,1.3417968 -0.220716,0.048097 -0.4439844,0.07417 -0.6699219,0.074219 -1.7448569,0 -3.16015615,-1.4133462 -3.1601562,-3.1582032 0,-1.744857 1.4152992,-3.15820307 3.1601562,-3.1582038 z"
         id="path934" />
    </g>
  </g>
</svg>
